REM DIRINDEX 1\2,1\3,1\4,1\5
REM DIRNAME "folder01","folder02","folder03","folder04","folder05"
TITLE ""
FILE "1Q_t_2020-2029.mp3" MP3
  TRACK 01 AUDIO
    TITLE "3:cjc172_7069"
    INDEX 01 00:00:00
  TRACK 02 AUDIO
    TITLE "0:"
    INDEX 01 00:01:08
  TRACK 03 AUDIO
    TITLE "4:cjc172_7070"
    INDEX 01 00:01:18
  TRACK 04 AUDIO
    TITLE "0:"
    INDEX 01 00:04:30
  TRACK 05 AUDIO
    TITLE "5:cjc172_7071"
    INDEX 01 00:04:41
  TRACK 06 AUDIO
    TITLE "0:"
    INDEX 01 00:10:07
  TRACK 07 AUDIO
    TITLE "3:cjc172_7072"
    INDEX 01 00:10:52
  TRACK 08 AUDIO
    TITLE "0:"
    INDEX 01 00:11:53
  TRACK 09 AUDIO
    TITLE "4:cjc172_7073"
    INDEX 01 00:11:63
  TRACK 10 AUDIO
    TITLE "0:"
    INDEX 01 00:15:06
  TRACK 11 AUDIO
    TITLE "5:cjc172_7074"
    INDEX 01 00:15:16
  TRACK 12 AUDIO
    TITLE "0:"
    INDEX 01 00:19:61
  TRACK 13 AUDIO
    TITLE "3:cjc172_7075"
    INDEX 01 00:20:31
  TRACK 14 AUDIO
    TITLE "0:"
    INDEX 01 00:21:28
  TRACK 15 AUDIO
    TITLE "4:cjc172_7076"
    INDEX 01 00:21:38
  TRACK 16 AUDIO
    TITLE "0:"
    INDEX 01 00:23:07
  TRACK 17 AUDIO
    TITLE "5:cjc172_7077"
    INDEX 01 00:23:15
  TRACK 18 AUDIO
    TITLE "0:"
    INDEX 01 00:28:67
  TRACK 19 AUDIO
    TITLE "3:cjc172_7078"
    INDEX 01 00:29:39
  TRACK 20 AUDIO
    TITLE "0:"
    INDEX 01 00:31:05
  TRACK 21 AUDIO
    TITLE "4:cjc172_7079"
    INDEX 01 00:31:15
  TRACK 22 AUDIO
    TITLE "0:"
    INDEX 01 00:32:61
  TRACK 23 AUDIO
    TITLE "5:cjc172_7080"
    INDEX 01 00:32:69
  TRACK 24 AUDIO
    TITLE "0:"
    INDEX 01 00:37:41
  TRACK 25 AUDIO
    TITLE "3:cjc172_7081"
    INDEX 01 00:38:13
  TRACK 26 AUDIO
    TITLE "0:"
    INDEX 01 00:39:16
  TRACK 27 AUDIO
    TITLE "4:cjc172_7082"
    INDEX 01 00:39:26
  TRACK 28 AUDIO
    TITLE "0:"
    INDEX 01 00:40:49
  TRACK 29 AUDIO
    TITLE "5:cjc172_7083"
    INDEX 01 00:40:57
  TRACK 30 AUDIO
    TITLE "0:"
    INDEX 01 00:45:11
  TRACK 31 AUDIO
    TITLE "3:cjc172_7084"
    INDEX 01 00:45:58
  TRACK 32 AUDIO
    TITLE "0:"
    INDEX 01 00:46:63
  TRACK 33 AUDIO
    TITLE "4:cjc172_7085"
    INDEX 01 00:46:73
  TRACK 34 AUDIO
    TITLE "0:"
    INDEX 01 00:48:39
  TRACK 35 AUDIO
    TITLE "5:cjc172_7086"
    INDEX 01 00:48:49
  TRACK 36 AUDIO
    TITLE "0:"
    INDEX 01 00:53:28
  TRACK 37 AUDIO
    TITLE "3:cjc172_7087"
    INDEX 01 00:53:73
  TRACK 38 AUDIO
    TITLE "0:"
    INDEX 01 00:54:73
  TRACK 39 AUDIO
    TITLE "4:cjc172_7088"
    INDEX 01 00:55:07
  TRACK 40 AUDIO
    TITLE "0:"
    INDEX 01 00:56:66
  TRACK 41 AUDIO
    TITLE "5:cjc172_7089"
    INDEX 01 00:56:75
  TRACK 42 AUDIO
    TITLE "0:"
    INDEX 01 01:02:41
  TRACK 43 AUDIO
    TITLE "3:cjc172_7090"
    INDEX 01 01:03:11
  TRACK 44 AUDIO
    TITLE "0:"
    INDEX 01 01:04:55
  TRACK 45 AUDIO
    TITLE "4:cjc172_7091"
    INDEX 01 01:04:63
  TRACK 46 AUDIO
    TITLE "0:"
    INDEX 01 01:06:48
  TRACK 47 AUDIO
    TITLE "5:cjc172_7092"
    INDEX 01 01:06:56
  TRACK 48 AUDIO
    TITLE "0:"
    INDEX 01 01:11:03
  TRACK 49 AUDIO
    TITLE "3:cjc172_7093"
    INDEX 01 01:11:52
  TRACK 50 AUDIO
    TITLE "0:"
    INDEX 01 01:12:63
  TRACK 51 AUDIO
    TITLE "4:cjc172_7094"
    INDEX 01 01:12:71
  TRACK 52 AUDIO
    TITLE "0:"
    INDEX 01 01:14:40
  TRACK 53 AUDIO
    TITLE "5:cjc172_7095"
    INDEX 01 01:14:50
  TRACK 54 AUDIO
    TITLE "0:"
    INDEX 01 01:19:04
  TRACK 55 AUDIO
    TITLE "3:cjc172_7096"
    INDEX 01 01:19:51
  TRACK 56 AUDIO
    TITLE "0:"
    INDEX 01 01:20:70
  TRACK 57 AUDIO
    TITLE "4:cjc172_7097"
    INDEX 01 01:21:07
  TRACK 58 AUDIO
    TITLE "0:"
    INDEX 01 01:22:53
  TRACK 59 AUDIO
    TITLE "5:cjc172_7098"
    INDEX 01 01:22:63
  TRACK 60 AUDIO
    TITLE "0:"
    INDEX 01 01:26:65
